<svg xmlns="http://www.w3.org/2000/svg" width="122" height="40" fill="none"><g fill="#B5B5B5" opacity=".84"><path d="M16.256 3.969c-8.826 0-15.98 7.154-15.98 15.98 0 8.825 7.154 15.98 15.98 15.98 7.918 0 14.49-5.759 15.759-13.317H31.9c-1.182 4.595-5.354 7.99-10.318 7.99-5.883 0-10.653-4.77-10.653-10.653s4.77-10.654 10.653-10.654c4.964 0 9.136 3.396 10.318 7.99h.115C30.747 9.729 24.174 3.97 16.255 3.97Z" opacity=".3"/><path d="M.275 19.949c0-8.826 7.155-15.98 15.98-15.98 7.919 0 14.492 5.759 15.76 13.317H21.247c-1.183-4.595-5.354-7.99-10.318-7.99-5.884 0-10.654 4.77-10.654 10.653m0 .001c0 8.825 7.155 15.98 15.98 15.98 7.919 0 14.492-5.76 15.76-13.317H21.247c-1.183 4.595-5.354 7.99-10.318 7.99-5.884 0-10.654-4.77-10.654-10.654Z"/></g><path fill="#B5B5B5" fill-rule="evenodd" d="M52.864 17.314h3.142l-.014-.091c-.517-3.385-3.849-5.815-7.61-5.815-4.68 0-8.235 3.629-8.235 8.399 0 4.792 3.555 8.444 8.236 8.444 3.857 0 6.999-2.456 7.655-6.02l.018-.095h-3.171l-.015.061c-.477 1.93-2.317 3.253-4.487 3.253-2.987 0-5.273-2.438-5.273-5.643 0-3.182 2.286-5.597 5.273-5.597 2.148 0 3.943 1.256 4.464 3.047zM69.29 28.02V16.529h-2.755v1.832c-.842-1.31-2.202-2.064-3.952-2.064-3.086 0-5.502 2.661-5.502 5.966 0 3.304 2.416 5.988 5.502 5.988 1.75 0 3.11-.753 3.952-2.063v1.832zm-6.151-2.385c-1.879 0-3.35-1.493-3.35-3.372a3.327 3.327 0 0 1 3.35-3.35c1.926 0 3.372 1.448 3.372 3.35 0 1.925-1.447 3.372-3.372 3.372m12.066-2.005v-4.485h2.966v-2.616h-2.966v-3.035H72.45v3.035h-2.155v2.616h2.155v4.531c0 1.452.422 2.575 1.17 3.335s1.813 1.148 3.081 1.148c.42 0 1.007-.047 1.409-.142l.061-.014v-2.555l-.1.028a3.2 3.2 0 0 1-.814.09c-.615 0-1.126-.143-1.483-.45-.354-.306-.569-.785-.569-1.486m15.401 4.39V16.529h-2.755v1.832c-.842-1.31-2.201-2.064-3.952-2.064-3.085 0-5.502 2.661-5.502 5.966 0 3.304 2.416 5.988 5.502 5.988 1.751 0 3.11-.753 3.952-2.063v1.832zm-6.15-2.385c-1.879 0-3.35-1.493-3.35-3.372 0-1.857 1.47-3.35 3.35-3.35 1.925 0 3.372 1.448 3.372 3.35 0 1.925-1.447 3.372-3.373 3.372Zm10.977 2.385V11.64H92.7v16.38h2.732Zm17.284.442h-2.731l.004.084c.071 1.62.942 2.673 2.079 3.318 1.134.643 2.533.882 3.678.882 1.66 0 3.122-.497 4.171-1.4 1.049-.905 1.678-2.214 1.678-3.823v-.639h.023V16.53h-2.755v1.77c-.842-1.27-2.201-2.002-3.951-2.002-3.084 0-5.502 2.59-5.502 5.803s2.417 5.827 5.502 5.827c1.749 0 3.109-.732 3.951-2.021l-.023 1.71c0 1.682-1.412 2.816-3.164 2.816-.8 0-1.526-.178-2.058-.504-.53-.325-.864-.796-.897-1.39l-.005-.076Zm2.752-3.082c-1.881 0-3.35-1.471-3.35-3.28 0-1.807 1.469-3.256 3.35-3.256 1.928 0 3.372 1.403 3.372 3.256 0 1.855-1.445 3.28-3.372 3.28m-7.152-8.975.039-.107h-2.987l-.024.032a3.28 3.28 0 0 1-2.63 1.292c-1.091 0-2.031-.5-2.622-1.292l-.024-.032h-2.974l.039.107c.822 2.29 2.968 3.856 5.581 3.856s4.773-1.565 5.602-3.856m-2.5 11.846h2.756l.012-.066q.095-.536.096-1.105c0-3.404-2.608-5.989-5.966-5.989s-5.942 2.585-5.942 5.989q.001.569.095 1.105l.012.066h2.751l-.033-.104a3.5 3.5 0 0 1-.163-1.067c0-1.905 1.426-3.373 3.28-3.373 1.832 0 3.303 1.47 3.303 3.373q-.002.566-.167 1.067z" clip-rule="evenodd" opacity=".84"/></svg>